<?xml version="1.0" encoding="UTF-8"?> <svg xmlns="http://www.w3.org/2000/svg" width="199" height="199" viewBox="0 0 199 199" fill="none"> <path d="M99.5009 0C44.6359 0 0 44.6352 0 99.4996C0 154.364 44.6359 198.999 99.5009 198.999C154.365 198.999 199.001 154.364 199.001 99.4996C199.001 44.6352 154.365 0 99.5009 0ZM99.5009 182.688C53.63 182.688 16.3114 145.371 16.3114 99.4996C16.3114 53.6293 53.63 16.3114 99.5009 16.3114C145.371 16.3114 182.689 53.6293 182.689 99.4996C182.689 145.371 145.371 182.688 99.5009 182.688Z" fill="#469192"></path> <path d="M142.544 61.3106L83.4667 120.389L56.4563 93.3782C53.271 90.1936 48.1075 90.1936 44.9222 93.3782C41.7375 96.5635 41.7375 101.727 44.9222 104.912L77.6996 137.69C79.2923 139.282 81.3795 140.078 83.4667 140.078C85.5539 140.078 87.6411 139.282 89.2338 137.69L154.078 72.8454C157.263 69.6601 157.263 64.4966 154.078 61.3113C150.893 58.126 145.729 58.126 142.544 61.3106Z" fill="#469192"></path> </svg> 