<?xml version="1.0" encoding="UTF-8"?> <svg xmlns="http://www.w3.org/2000/svg" width="243" height="243" viewBox="0 0 243 243" fill="none"> <path fill-rule="evenodd" clip-rule="evenodd" d="M50.625 222.75C33.8494 222.75 20.25 209.151 20.25 192.375V131.625C20.25 114.849 33.8494 101.25 50.625 101.25H64.6076L96.722 37.0409C101.565 27.3557 111.166 21.0279 121.871 20.3169L123.89 20.25H126.562C139.983 20.25 150.964 30.6943 151.821 43.8982L151.875 45.5625V101.25H192.357C194.358 101.25 196.353 101.448 198.314 101.84C214.177 105.012 224.663 120.005 222.442 135.822L222.143 137.582L209.992 198.332C207.271 211.938 195.709 221.891 182.006 222.697L180.207 222.75H50.625ZM60.75 121.5H50.625C45.0331 121.5 40.5 126.033 40.5 131.625V192.375C40.5 197.967 45.0331 202.5 50.625 202.5H60.75V121.5ZM126.562 40.5H123.89C120.481 40.5 117.332 42.212 115.47 45.0016L114.834 46.097L82.0689 111.627C81.5417 112.682 81.2041 113.817 81.0682 114.982L81 116.155V202.5H180.207C184.632 202.5 188.492 199.637 189.834 195.515L190.136 194.361L202.286 133.611C203.382 128.127 199.826 122.793 194.343 121.697L193.355 121.549L192.357 121.5H151.875C141.2 121.5 132.454 113.239 131.681 102.761L131.625 101.25V45.5625C131.625 43.0772 129.834 41.0102 127.472 40.5816L126.562 40.5Z" fill="#469192"></path> </svg> 