<?xml version="1.0" encoding="UTF-8"?> <svg xmlns="http://www.w3.org/2000/svg" width="114" height="55" viewBox="0 0 114 55" fill="none"> <path d="M9.672 23H2.088C1.784 23 1.56 22.936 1.416 22.808C1.288 22.664 1.224 22.44 1.224 22.136V19.328C1.224 19.024 1.288 18.808 1.416 18.68C1.56 18.536 1.784 18.464 2.088 18.464H8.544C8.752 18.464 8.904 18.4 9 18.272C9.112 18.128 9.168 17.96 9.168 17.768C9.168 17.496 9.112 17.296 9 17.168C8.904 17.04 8.752 16.968 8.544 16.952L4.944 16.448C3.824 16.288 2.92 15.92 2.232 15.344C1.56 14.768 1.224 13.808 1.224 12.464V9.944C1.224 8.584 1.664 7.544 2.544 6.824C3.424 6.088 4.64 5.72 6.192 5.72H12.912C13.216 5.72 13.432 5.792 13.56 5.936C13.704 6.064 13.776 6.28 13.776 6.584V9.44C13.776 9.744 13.704 9.968 13.56 10.112C13.432 10.24 13.216 10.304 12.912 10.304H7.32C7.112 10.304 6.952 10.376 6.84 10.52C6.728 10.648 6.672 10.816 6.672 11.024C6.672 11.232 6.728 11.408 6.84 11.552C6.952 11.696 7.112 11.776 7.32 11.792L10.896 12.272C12.016 12.432 12.92 12.8 13.608 13.376C14.296 13.952 14.64 14.912 14.64 16.256V18.776C14.64 20.136 14.192 21.184 13.296 21.92C12.416 22.64 11.208 23 9.672 23ZM21.7054 23H18.1294C17.8254 23 17.6014 22.936 17.4574 22.808C17.3294 22.664 17.2654 22.44 17.2654 22.136V6.584C17.2654 6.28 17.3294 6.064 17.4574 5.936C17.6014 5.792 17.8254 5.72 18.1294 5.72H21.9934C22.2494 5.72 22.4574 5.776 22.6174 5.888C22.7934 6 22.9534 6.184 23.0974 6.44L25.2574 10.352C25.3374 10.496 25.4014 10.6 25.4494 10.664C25.5134 10.728 25.5934 10.76 25.6894 10.76H25.9054C26.0014 10.76 26.0734 10.728 26.1214 10.664C26.1854 10.6 26.2574 10.496 26.3374 10.352L28.4734 6.44C28.6174 6.184 28.7694 6 28.9294 5.888C29.1054 5.776 29.3214 5.72 29.5774 5.72H33.4654C33.7694 5.72 33.9854 5.792 34.1134 5.936C34.2574 6.064 34.3294 6.28 34.3294 6.584V22.136C34.3294 22.44 34.2574 22.664 34.1134 22.808C33.9854 22.936 33.7694 23 33.4654 23H29.7694C29.4654 23 29.2414 22.936 29.0974 22.808C28.9694 22.664 28.9054 22.44 28.9054 22.136V13.688L27.4894 16.304C27.3454 16.576 27.1694 16.776 26.9614 16.904C26.7694 17.016 26.5214 17.072 26.2174 17.072H25.2574C24.9534 17.072 24.6974 17.016 24.4894 16.904C24.2974 16.776 24.1294 16.576 23.9854 16.304L22.5694 13.688V22.136C22.5694 22.44 22.4974 22.664 22.3534 22.808C22.2254 22.936 22.0094 23 21.7054 23ZM43.8966 10.76L42.7686 14.408H46.5366L45.4086 10.76C45.3446 10.616 45.2726 10.512 45.1926 10.448C45.1286 10.384 45.0486 10.352 44.9526 10.352H44.3526C44.2566 10.352 44.1686 10.384 44.0886 10.448C44.0246 10.512 43.9606 10.616 43.8966 10.76ZM42.5286 22.136C42.5286 22.44 42.4566 22.664 42.3126 22.808C42.1846 22.936 41.9686 23 41.6646 23H38.1366C37.8326 23 37.6086 22.936 37.4646 22.808C37.3366 22.664 37.2726 22.44 37.2726 22.136V15.8C37.2726 15.32 37.3446 14.768 37.4886 14.144C37.6486 13.52 37.8886 12.792 38.2086 11.96L40.2966 6.512C40.3926 6.24 40.5366 6.04 40.7286 5.912C40.9366 5.784 41.2006 5.72 41.5206 5.72H47.9766C48.2806 5.72 48.5286 5.784 48.7206 5.912C48.9286 6.04 49.0806 6.24 49.1766 6.512L51.2646 11.96C51.5846 12.792 51.8166 13.52 51.9606 14.144C52.1206 14.768 52.2006 15.32 52.2006 15.8V22.136C52.2006 22.44 52.1286 22.664 51.9846 22.808C51.8566 22.936 51.6406 23 51.3366 23H47.7126C47.3926 23 47.1526 22.936 46.9926 22.808C46.8486 22.664 46.7766 22.44 46.7766 22.136V18.776H42.5286V22.136ZM68.2438 23H56.0278C55.7238 23 55.4998 22.936 55.3558 22.808C55.2278 22.664 55.1638 22.44 55.1638 22.136V6.584C55.1638 6.28 55.2278 6.064 55.3558 5.936C55.4998 5.792 55.7238 5.72 56.0278 5.72H59.7478C60.0518 5.72 60.2678 5.792 60.3958 5.936C60.5398 6.064 60.6118 6.28 60.6118 6.584V18.464H63.8998V14.576C63.8998 14.272 63.9638 14.056 64.0918 13.928C64.2358 13.784 64.4598 13.712 64.7638 13.712H68.2438C68.5478 13.712 68.7638 13.784 68.8918 13.928C69.0358 14.056 69.1078 14.272 69.1078 14.576V22.136C69.1078 22.44 69.0358 22.664 68.8918 22.808C68.7638 22.936 68.5478 23 68.2438 23ZM84.9313 23H72.7153C72.4113 23 72.1873 22.936 72.0433 22.808C71.9153 22.664 71.8513 22.44 71.8513 22.136V6.584C71.8513 6.28 71.9153 6.064 72.0433 5.936C72.1873 5.792 72.4113 5.72 72.7153 5.72H76.4353C76.7393 5.72 76.9553 5.792 77.0833 5.936C77.2273 6.064 77.2993 6.28 77.2993 6.584V18.464H80.5873V14.576C80.5873 14.272 80.6513 14.056 80.7793 13.928C80.9233 13.784 81.1473 13.712 81.4513 13.712H84.9313C85.2353 13.712 85.4513 13.784 85.5793 13.928C85.7233 14.056 85.7953 14.272 85.7953 14.576V22.136C85.7953 22.44 85.7233 22.664 85.5793 22.808C85.4513 22.936 85.2353 23 84.9313 23Z" fill="#469192"></path> <path d="M40.24 49H36.52C36.216 49 35.992 48.936 35.848 48.808C35.72 48.664 35.656 48.44 35.656 48.136V32.584C35.656 32.28 35.72 32.064 35.848 31.936C35.992 31.792 36.216 31.72 36.52 31.72H43.864C46.04 31.72 47.528 32.152 48.328 33.016C49.128 33.88 49.528 35.008 49.528 36.4V39.472C49.528 40.864 49.128 41.992 48.328 42.856C47.528 43.72 46.04 44.152 43.864 44.152H41.104V48.136C41.104 48.44 41.032 48.664 40.888 48.808C40.76 48.936 40.544 49 40.24 49ZM41.056 36.208V39.832H43.216C43.68 39.832 43.984 39.712 44.128 39.472C44.272 39.232 44.344 38.96 44.344 38.656V37.384C44.344 37.08 44.272 36.808 44.128 36.568C43.984 36.328 43.68 36.208 43.216 36.208H41.056ZM57.4394 36.04V39.112H59.2394C59.6554 39.112 59.9354 39.008 60.0794 38.8C60.2234 38.576 60.2954 38.304 60.2954 37.984V37.168C60.2954 36.848 60.2234 36.584 60.0794 36.376C59.9354 36.152 59.6554 36.04 59.2394 36.04H57.4394ZM56.5754 49H52.8794C52.5754 49 52.3514 48.936 52.2074 48.808C52.0794 48.664 52.0154 48.44 52.0154 48.136V32.584C52.0154 32.28 52.0794 32.064 52.2074 31.936C52.3514 31.792 52.5754 31.72 52.8794 31.72H60.8714C62.6634 31.72 63.8954 32.096 64.5674 32.848C65.2554 33.584 65.5994 34.544 65.5994 35.728V36.832C65.5994 37.504 65.4954 38.08 65.2874 38.56C65.0954 39.024 64.7514 39.36 64.2554 39.568C65.1194 39.664 65.8154 40.016 66.3434 40.624C66.8874 41.232 67.1594 42.04 67.1594 43.048V48.136C67.1594 48.44 67.0874 48.664 66.9434 48.808C66.8154 48.936 66.5994 49 66.2954 49H62.5754C62.2714 49 62.0474 48.936 61.9034 48.808C61.7754 48.664 61.7114 48.44 61.7114 48.136V44.464C61.7114 44.112 61.6394 43.856 61.4954 43.696C61.3674 43.52 61.1354 43.432 60.7994 43.432H57.4394V48.136C57.4394 48.44 57.3674 48.664 57.2234 48.808C57.0954 48.936 56.8794 49 56.5754 49ZM70.3313 49C70.0273 49 69.8033 48.936 69.6593 48.808C69.5313 48.664 69.4673 48.44 69.4673 48.136V45.28C69.4673 44.976 69.5313 44.76 69.6593 44.632C69.8033 44.488 70.0273 44.416 70.3313 44.416H72.7073V36.352H70.3313C70.0273 36.352 69.8033 36.288 69.6593 36.16C69.5313 36.016 69.4673 35.792 69.4673 35.488V32.584C69.4673 32.28 69.5313 32.064 69.6593 31.936C69.8033 31.792 70.0273 31.72 70.3313 31.72H80.5553C80.8593 31.72 81.0753 31.792 81.2033 31.936C81.3473 32.064 81.4193 32.28 81.4193 32.584V35.488C81.4193 35.792 81.3473 36.016 81.2033 36.16C81.0753 36.288 80.8593 36.352 80.5553 36.352H78.2273V44.416H80.5553C80.8593 44.416 81.0753 44.488 81.2033 44.632C81.3473 44.76 81.4193 44.976 81.4193 45.28V48.136C81.4193 48.44 81.3473 48.664 81.2033 48.808C81.0753 48.936 80.8593 49 80.5553 49H70.3313ZM95.8786 49H90.0226C88.0226 49 86.5346 48.6 85.5586 47.8C84.5986 47 84.1186 45.768 84.1186 44.104V36.64C84.1186 34.976 84.5986 33.744 85.5586 32.944C86.5346 32.128 88.0226 31.72 90.0226 31.72H95.8786C96.1826 31.72 96.3986 31.792 96.5266 31.936C96.6706 32.064 96.7426 32.28 96.7426 32.584V35.488C96.7426 35.792 96.6706 36.016 96.5266 36.16C96.3986 36.288 96.1826 36.352 95.8786 36.352H91.0546C90.5586 36.352 90.1906 36.456 89.9506 36.664C89.7106 36.856 89.5906 37.152 89.5906 37.552V43.264C89.5906 43.664 89.7106 43.96 89.9506 44.152C90.1906 44.328 90.5586 44.416 91.0546 44.416H95.8786C96.1826 44.416 96.3986 44.488 96.5266 44.632C96.6706 44.76 96.7426 44.976 96.7426 45.28V48.136C96.7426 48.44 96.6706 48.664 96.5266 48.808C96.3986 48.936 96.1826 49 95.8786 49ZM111.453 49H100.317C100.013 49 99.7889 48.936 99.6449 48.808C99.5169 48.664 99.4529 48.44 99.4529 48.136V32.584C99.4529 32.28 99.5169 32.064 99.6449 31.936C99.7889 31.792 100.013 31.72 100.317 31.72H111.453C111.757 31.72 111.973 31.792 112.101 31.936C112.245 32.064 112.317 32.28 112.317 32.584V35.392C112.317 35.696 112.245 35.92 112.101 36.064C111.973 36.192 111.757 36.256 111.453 36.256H104.829V38.104H109.509C109.813 38.104 110.029 38.176 110.157 38.32C110.301 38.448 110.373 38.664 110.373 38.968V41.536C110.373 41.84 110.301 42.064 110.157 42.208C110.029 42.336 109.813 42.4 109.509 42.4H104.829V44.464H111.453C111.757 44.464 111.973 44.536 112.101 44.68C112.245 44.808 112.317 45.024 112.317 45.328V48.136C112.317 48.44 112.245 48.664 112.101 48.808C111.973 48.936 111.757 49 111.453 49Z" fill="#469192"></path> <rect y="39" width="31" height="3" rx="1.5" fill="#469192"></rect> </svg> 