<?xml version="1.0" encoding="UTF-8"?> <svg xmlns="http://www.w3.org/2000/svg" width="243" height="243" viewBox="0 0 243 243" fill="none"> <path d="M236.824 113.403C242.425 107.943 244.403 99.9301 241.985 92.4905C239.568 85.051 233.258 79.7311 225.517 78.606L166.455 70.0235C166.347 70.0079 166.254 69.9399 166.206 69.8429L139.794 16.3242C136.333 9.30951 129.323 4.95081 121.5 4.95081C113.676 4.95081 106.667 9.30951 103.206 16.3242L76.7931 69.8429C76.7451 69.9399 76.6526 70.0068 76.5444 70.0235L17.4828 78.606C9.74223 79.7311 3.4322 85.051 1.01479 92.4905C-1.40262 99.9301 0.575467 107.943 6.17632 113.403L48.9137 155.062C48.9917 155.138 49.0274 155.247 49.0084 155.354L38.9195 214.178C37.5971 221.888 40.7081 229.534 47.0359 234.131C53.3649 238.731 61.5973 239.324 68.5206 235.684L121.347 207.912C121.443 207.861 121.559 207.862 121.655 207.912L174.481 235.684C177.493 237.268 180.751 238.049 183.993 238.049C188.205 238.049 192.389 236.729 195.964 234.131C202.292 229.534 205.402 221.888 204.081 214.177L193.992 155.354C193.973 155.247 194.01 155.138 194.087 155.062L236.824 113.403ZM174.209 158.746L184.298 217.569C184.324 217.725 184.332 217.772 184.166 217.893C184 218.013 183.958 217.991 183.818 217.917L130.991 190.144C125.048 187.02 117.95 187.02 112.005 190.144L59.1787 217.916C59.0394 217.988 58.997 218.012 58.8308 217.891C58.6647 217.771 58.6725 217.724 58.6993 217.569L68.7882 158.745C69.9233 152.126 67.73 145.377 62.9208 140.688L20.1857 99.0302C20.0731 98.9199 20.0385 98.8875 20.1021 98.6924C20.1656 98.4973 20.2125 98.4906 20.3686 98.4671L79.4301 89.8847C86.0769 88.919 91.8194 84.7477 94.791 78.7253L121.204 25.2055C121.274 25.065 121.294 25.0216 121.5 25.0216C121.705 25.0216 121.726 25.065 121.795 25.2055L148.208 78.7253C151.181 84.7477 156.922 88.9202 163.569 89.8847L222.631 98.4671C222.787 98.4906 222.833 98.4973 222.897 98.6924C222.961 98.8875 222.926 98.921 222.813 99.0302L180.076 140.689C175.268 145.377 173.075 152.127 174.209 158.746Z" fill="#469192"></path> </svg> 